<svg xmlns="http://www.w3.org/2000/svg" width="1000" height="700" viewBox="0 0 1000 700">
<rect width="100%" height="100%" fill="white"/>
<text x="500" y="35" text-anchor="middle" font-family="Arial" font-size="22">Normalized Runtime (R/C)</text>
<line x1="90" y1="620" x2="805" y2="620" stroke="#222"/>
<line x1="90" y1="70" x2="90" y2="620" stroke="#222"/>
<line x1="149.33" y1="70" x2="149.33" y2="620" stroke="#d6d6d6"/>
<line x1="149.33" y1="620" x2="149.33" y2="626" stroke="#222"/>
<text x="149.33" y="642.00" text-anchor="middle" font-family="Arial" font-size="12">10<tspan baseline-shift="super" font-size="9">2</tspan></text>
<line x1="262.81" y1="70" x2="262.81" y2="620" stroke="#d6d6d6"/>
<line x1="262.81" y1="620" x2="262.81" y2="626" stroke="#222"/>
<text x="262.81" y="642.00" text-anchor="middle" font-family="Arial" font-size="12">10<tspan baseline-shift="super" font-size="9">3</tspan></text>
<line x1="376.28" y1="70" x2="376.28" y2="620" stroke="#d6d6d6"/>
<line x1="376.28" y1="620" x2="376.28" y2="626" stroke="#222"/>
<text x="376.28" y="642.00" text-anchor="middle" font-family="Arial" font-size="12">10<tspan baseline-shift="super" font-size="9">4</tspan></text>
<line x1="489.75" y1="70" x2="489.75" y2="620" stroke="#d6d6d6"/>
<line x1="489.75" y1="620" x2="489.75" y2="626" stroke="#222"/>
<text x="489.75" y="642.00" text-anchor="middle" font-family="Arial" font-size="12">10<tspan baseline-shift="super" font-size="9">5</tspan></text>
<line x1="603.23" y1="70" x2="603.23" y2="620" stroke="#d6d6d6"/>
<line x1="603.23" y1="620" x2="603.23" y2="626" stroke="#222"/>
<text x="603.23" y="642.00" text-anchor="middle" font-family="Arial" font-size="12">10<tspan baseline-shift="super" font-size="9">6</tspan></text>
<line x1="716.70" y1="70" x2="716.70" y2="620" stroke="#d6d6d6"/>
<line x1="716.70" y1="620" x2="716.70" y2="626" stroke="#222"/>
<text x="716.70" y="642.00" text-anchor="middle" font-family="Arial" font-size="12">10<tspan baseline-shift="super" font-size="9">7</tspan></text>
<line x1="90" y1="620.00" x2="805" y2="620.00" stroke="#d6d6d6"/>
<line x1="84" y1="620.00" x2="90" y2="620.00" stroke="#222"/>
<text x="80.00" y="624.00" text-anchor="end" font-family="Arial" font-size="12">10<tspan baseline-shift="super" font-size="9">-12</tspan></text>
<line x1="90" y1="548.60" x2="805" y2="548.60" stroke="#d6d6d6"/>
<line x1="84" y1="548.60" x2="90" y2="548.60" stroke="#222"/>
<text x="80.00" y="552.60" text-anchor="end" font-family="Arial" font-size="12">10<tspan baseline-shift="super" font-size="9">-11</tspan></text>
<line x1="90" y1="477.20" x2="805" y2="477.20" stroke="#d6d6d6"/>
<line x1="84" y1="477.20" x2="90" y2="477.20" stroke="#222"/>
<text x="80.00" y="481.20" text-anchor="end" font-family="Arial" font-size="12">10<tspan baseline-shift="super" font-size="9">-10</tspan></text>
<line x1="90" y1="405.81" x2="805" y2="405.81" stroke="#d6d6d6"/>
<line x1="84" y1="405.81" x2="90" y2="405.81" stroke="#222"/>
<text x="80.00" y="409.81" text-anchor="end" font-family="Arial" font-size="12">10<tspan baseline-shift="super" font-size="9">-9</tspan></text>
<line x1="90" y1="334.41" x2="805" y2="334.41" stroke="#d6d6d6"/>
<line x1="84" y1="334.41" x2="90" y2="334.41" stroke="#222"/>
<text x="80.00" y="338.41" text-anchor="end" font-family="Arial" font-size="12">10<tspan baseline-shift="super" font-size="9">-8</tspan></text>
<line x1="90" y1="263.01" x2="805" y2="263.01" stroke="#d6d6d6"/>
<line x1="84" y1="263.01" x2="90" y2="263.01" stroke="#222"/>
<text x="80.00" y="267.01" text-anchor="end" font-family="Arial" font-size="12">10<tspan baseline-shift="super" font-size="9">-7</tspan></text>
<line x1="90" y1="191.61" x2="805" y2="191.61" stroke="#d6d6d6"/>
<line x1="84" y1="191.61" x2="90" y2="191.61" stroke="#222"/>
<text x="80.00" y="195.61" text-anchor="end" font-family="Arial" font-size="12">10<tspan baseline-shift="super" font-size="9">-6</tspan></text>
<line x1="90" y1="120.21" x2="805" y2="120.21" stroke="#d6d6d6"/>
<line x1="84" y1="120.21" x2="90" y2="120.21" stroke="#222"/>
<text x="80.00" y="124.21" text-anchor="end" font-family="Arial" font-size="12">10<tspan baseline-shift="super" font-size="9">-5</tspan></text>
<text x="448" y="675" text-anchor="middle" font-family="Arial" font-size="16">Complexity (C)</text>
<text x="24" y="345" text-anchor="middle" font-family="Arial" font-size="16" transform="rotate(-90 24 345)">R / C</text>
<circle cx="362.10" cy="620.00" r="5" fill="#1f77b4"/>
<title>n=3, C=7500, R/C=0.000000e+00</title>
<rect x="473.76" y="258.01" width="10" height="10" fill="#ff7f0e" transform="rotate(0 478.76 263.01)"/>
<title>n=4, C=80000, R/C=1.000000e-07</title>
<polygon points="603.23,234.75 597.23,245.75 609.23,245.75" fill="#2ca02c"/>
<title>n=5, C=1000000, R/C=2.050000e-07</title>
<rect x="800.00" y="217.73" width="10" height="10" fill="#d62728" transform="rotate(45 805.00 222.73)"/>
<title>n=6, C=60000000, R/C=3.666000e-07</title>
<circle cx="282.79" cy="620.00" r="5" fill="#1f77b4"/>
<title>n=3, C=1500, R/C=0.000000e+00</title>
<rect x="291.97" y="65.00" width="10" height="10" fill="#ff7f0e" transform="rotate(0 296.97 70.00)"/>
<title>n=4, C=2000, R/C=5.050000e-05</title>
<polygon points="727.70,224.70 721.70,235.70 733.70,235.70" fill="#2ca02c"/>
<title>n=5, C=12500000, R/C=2.834400e-07</title>
<rect x="720.69" y="267.66" width="10" height="10" fill="#d62728" transform="rotate(45 725.69 272.66)"/>
<title>n=6, C=12000000, R/C=7.325000e-08</title>
<circle cx="237.63" cy="620.00" r="5" fill="#1f77b4"/>
<title>n=3, C=600, R/C=0.000000e+00</title>
<rect x="484.75" y="169.26" width="10" height="10" fill="#ff7f0e" transform="rotate(0 489.75 174.26)"/>
<title>n=4, C=100000, R/C=1.750000e-06</title>
<polygon points="569.07,143.02 563.07,154.02 575.07,154.02" fill="#2ca02c"/>
<title>n=5, C=500000, R/C=3.950000e-06</title>
<rect x="618.21" y="167.79" width="10" height="10" fill="#d62728" transform="rotate(45 623.21 172.79)"/>
<title>n=6, C=1500000, R/C=1.834667e-06</title>
<circle cx="203.47" cy="620.00" r="5" fill="#1f77b4"/>
<title>n=3, C=300, R/C=0.000000e+00</title>
<rect x="700.70" y="219.95" width="10" height="10" fill="#ff7f0e" transform="rotate(0 705.70 224.95)"/>
<title>n=4, C=8000000, R/C=3.412500e-07</title>
<polygon points="614.22,269.34 608.22,280.34 620.22,280.34" fill="#2ca02c"/>
<title>n=5, C=1250000, R/C=6.720000e-08</title>
<rect x="573.05" y="196.58" width="10" height="10" fill="#d62728" transform="rotate(45 578.05 201.58)"/>
<title>n=6, C=600000, R/C=7.250000e-07</title>
<circle cx="543.89" cy="288.94" r="5" fill="#1f77b4"/>
<title>n=3, C=300000, R/C=4.333333e-08</title>
<rect x="518.91" y="271.37" width="10" height="10" fill="#ff7f0e" transform="rotate(0 523.91 276.37)"/>
<title>n=4, C=200000, R/C=6.500000e-08</title>
<polygon points="727.70,274.37 721.70,285.37 733.70,285.37" fill="#2ca02c"/>
<title>n=5, C=12500000, R/C=5.712000e-08</title>
<rect x="607.21" y="168.07" width="10" height="10" fill="#d62728" transform="rotate(45 612.21 173.07)"/>
<title>n=6, C=1200000, R/C=1.818333e-06</title>
<circle cx="90.00" cy="620.00" r="5" fill="#1f77b4"/>
<title>n=3, C=30, R/C=0.000000e+00</title>
<rect x="371.28" y="258.01" width="10" height="10" fill="#ff7f0e" transform="rotate(0 376.28 263.01)"/>
<title>n=4, C=10000, R/C=1.000000e-07</title>
<polygon points="796.02,232.02 790.02,243.02 802.02,243.02" fill="#2ca02c"/>
<title>n=5, C=50000000, R/C=2.238400e-07</title>
<rect x="686.53" y="205.74" width="10" height="10" fill="#d62728" transform="rotate(45 691.53 210.74)"/>
<title>n=6, C=6000000, R/C=5.396667e-07</title>
<circle cx="385.26" cy="268.66" r="5" fill="#1f77b4"/>
<title>n=3, C=12000, R/C=8.333333e-08</title>
<rect x="553.07" y="170.02" width="10" height="10" fill="#ff7f0e" transform="rotate(0 558.07 175.02)"/>
<title>n=4, C=400000, R/C=1.707500e-06</title>
<polygon points="455.59,251.36 449.59,262.36 461.59,262.36" fill="#2ca02c"/>
<title>n=5, C=50000, R/C=1.200000e-07</title>
<rect x="686.53" y="145.87" width="10" height="10" fill="#d62728" transform="rotate(45 691.53 150.87)"/>
<title>n=6, C=6000000, R/C=3.720500e-06</title>
<circle cx="396.26" cy="275.58" r="5" fill="#1f77b4"/>
<title>n=3, C=15000, R/C=6.666667e-08</title>
<rect x="360.28" y="229.60" width="10" height="10" fill="#ff7f0e" transform="rotate(0 365.28 234.60)"/>
<title>n=4, C=8000, R/C=2.500000e-07</title>
<polygon points="796.02,262.06 790.02,273.06 802.02,273.06" fill="#2ca02c"/>
<title>n=5, C=50000000, R/C=8.496000e-08</title>
<rect x="720.69" y="237.18" width="10" height="10" fill="#d62728" transform="rotate(45 725.69 242.18)"/>
<title>n=6, C=12000000, R/C=1.957500e-07</title>
<circle cx="316.95" cy="620.00" r="5" fill="#1f77b4"/>
<title>n=3, C=3000, R/C=0.000000e+00</title>
<rect x="587.23" y="277.26" width="10" height="10" fill="#ff7f0e" transform="rotate(0 592.23 282.26)"/>
<title>n=4, C=800000, R/C=5.375000e-08</title>
<polygon points="648.38,130.63 642.38,141.63 654.38,141.63" fill="#2ca02c"/>
<title>n=5, C=2500000, R/C=5.890000e-06</title>
<rect x="607.21" y="215.74" width="10" height="10" fill="#d62728" transform="rotate(45 612.21 220.74)"/>
<title>n=6, C=1200000, R/C=3.908333e-07</title>
<circle cx="271.79" cy="620.00" r="5" fill="#1f77b4"/>
<title>n=3, C=1200, R/C=0.000000e+00</title>
<rect x="394.44" y="139.55" width="10" height="10" fill="#ff7f0e" transform="rotate(0 399.44 144.55)"/>
<title>n=4, C=16000, R/C=4.562500e-06</title>
<polygon points="545.91,152.47 539.91,163.47 551.91,163.47" fill="#2ca02c"/>
<title>n=5, C=312500, R/C=2.912000e-06</title>
<rect x="425.42" y="204.22" width="10" height="10" fill="#d62728" transform="rotate(45 430.42 209.22)"/>
<title>n=6, C=30000, R/C=5.666667e-07</title>
<text x="850" y="95" font-family="Arial" font-size="15" font-weight="bold">Task chain length</text>
<circle cx="862.00" cy="120.00" r="5" fill="#1f77b4"/>
<text x="882" y="125.00" font-family="Arial" font-size="14">n=3</text>
<rect x="857.00" y="143.00" width="10" height="10" fill="#ff7f0e" transform="rotate(0 862.00 148.00)"/>
<text x="882" y="153.00" font-family="Arial" font-size="14">n=4</text>
<polygon points="862.00,170.00 856.00,181.00 868.00,181.00" fill="#2ca02c"/>
<text x="882" y="181.00" font-family="Arial" font-size="14">n=5</text>
<rect x="857.00" y="199.00" width="10" height="10" fill="#d62728" transform="rotate(45 862.00 204.00)"/>
<text x="882" y="209.00" font-family="Arial" font-size="14">n=6</text>
</svg>
